<?xml version="1.0" encoding="UTF-8" standalone="no"?>
<!-- Created with Inkscape (http://www.inkscape.org/) -->

<svg
   xmlns:dc="http://purl.org/dc/elements/1.1/"
   xmlns:cc="http://creativecommons.org/ns#"
   xmlns:rdf="http://www.w3.org/1999/02/22-rdf-syntax-ns#"
   xmlns:svg="http://www.w3.org/2000/svg"
   xmlns="http://www.w3.org/2000/svg"
   xmlns:sodipodi="http://sodipodi.sourceforge.net/DTD/sodipodi-0.dtd"
   xmlns:inkscape="http://www.inkscape.org/namespaces/inkscape"
   version="1.0"
   width="153.97505"
   height="247.26671"
   viewBox="0 0 1183.6106 834.02313"
   id="Layer_1"
   xml:space="preserve"
   inkscape:version="0.48.5 r10040"
   sodipodi:docname="DNA_icon.svg">

  <metadata
     id="metadata4534">
    <rdf:RDF>
      <cc:Work
         rdf:about="">
        <dc:format>image/svg+xml</dc:format>
        <dc:type
           rdf:resource="http://purl.org/dc/dcmitype/StillImage" />
        <dc:title>DNA_icon</dc:title>
        <cc:license
           rdf:resource="http://creativecommons.org/publicdomain/zero/1.0/" />
        <dc:date>01/21/2017</dc:date>
        <dc:creator>
          <cc:Agent>
            <dc:title>Paul Sherman</dc:title>
          </cc:Agent>
        </dc:creator>
        <dc:rights>
          <cc:Agent>
            <dc:title>pd</dc:title>
            <dc:source></dc:source>
          </cc:Agent>
        </dc:rights>
        <dc:publisher>
          <cc:Agent>
            <dc:title>wpclipart</dc:title>
          </cc:Agent>
        </dc:publisher>
        <dc:source></dc:source>
      </cc:Work>
      <cc:License
         rdf:about="http://creativecommons.org/publicdomain/zero/1.0/">
        <cc:permits
           rdf:resource="http://creativecommons.org/ns#Reproduction" />
        <cc:permits
           rdf:resource="http://creativecommons.org/ns#Distribution" />
        <cc:permits
           rdf:resource="http://creativecommons.org/ns#DerivativeWorks" />
      </cc:License>
    </rdf:RDF>
  </metadata>
<sodipodi:namedview
     pagecolor="#ffffff"
     bordercolor="#666666"
     borderopacity="1"
     objecttolerance="10"
     gridtolerance="10"
     guidetolerance="10"
     inkscape:pageopacity="0"
     inkscape:pageshadow="2"
     inkscape:window-width="1089"
     inkscape:window-height="962"
     id="namedview9"
     showgrid="false"
     fit-margin-top="4"
     fit-margin-left="4"
     fit-margin-right="4"
     fit-margin-bottom="4"
     inkscape:zoom="1"
     inkscape:cx="-92.349793"
     inkscape:cy="171.10711"
     inkscape:window-x="0"
     inkscape:window-y="0"
     inkscape:window-maximized="0"
     inkscape:current-layer="Layer_1" /><defs
     id="defs859" /><path
     d="m 168.96351,1335.3948 c -2.40386,-73.9248 3.73313,-132.085 7.56502,-205.7955 0.85685,-15.9941 -22.13456,-26.157 -25.15726,-35.6772 -20.34955,-64.3807 -68.069805,20.2781 -75.067205,43.0077 -11.40048,36.9386 -18.11225,78.7325 -17.80287,117.5038 0.38083,46.1256 -26.77592,35.4746 -11.49595,80.553"
     style="fill:#bf0000;stroke:#000000;stroke-width:10.29444599"
     id="path141"
     inkscape:connector-curvature="0" /><path
     d="m 68.383935,-499.0929 c -23.19277,97.46571 -16.52262,262.87318 176.166805,464.793692 190.64305,199.734898 678.53219,316.191378 793.94146,490.792808 55.5269,83.96863 64.8329,-20.25433 66.856,-56.64551 1.9754,-35.58192 18.3979,-109.26868 -119.83624,-184.31207 -161.48724,-87.65772 -592.49288,-327.80609 -592.49288,-327.80609 0,0 -243.83795,-143.80865 -280.95766,-386.91305 M 1022.7362,1222.7311 c 55.5269,83.9687 64.8329,-20.2543 66.856,-56.6693 1.9754,-35.5819 18.3979,-109.2211 -119.83621,-184.26451 -161.48731,-87.6577 -592.49295,-327.8299 -592.49295,-327.8299 0,0 -308.075355,-181.67016 -284.393735,-481.89133 0,0 -176.07706,232.91297 135.925425,559.86223 190.64305,199.7587 678.53219,316.16761 793.94147,490.79281 z"
     style="fill:#8f0000;stroke:#000000;stroke-width:10.29444599"
     id="path133"
     inkscape:connector-curvature="0" /><path
     d="m 515.78272,321.75824 c 0,0 430.88662,18.37409 432.12427,18.42167 21.89659,0.92822 63.95231,-10.18667 64.33311,-37.72399 0.6665,-50.95715 -102.0333,-41.15129 -133.90237,-42.50793 -56.74068,-2.52286 -113.4814,-5.04573 -170.22208,-7.521 -16.04163,-0.69021 -212.34925,1.49944 -215.63374,-9.52025 l 23.30081,78.8515 z m 87.56253,-694.74041 432.50505,0 35.5582,0 c 0,0 11.8527,14.82776 25.1811,-25.18108 13.3283,-40.00887 4.4507,-51.86159 4.4507,-51.86159 l -524.32794,-0.71398 26.63289,77.75665 z m -38.50942,148.13511 41.48453,-41.4607 322.87934,-59.26356 c 0,0 77.0189,38.50941 47.41083,68.1412 -29.60795,29.63178 -42.96012,16.30343 -42.96012,16.30343 l -327.66329,49.21971 -41.15129,-32.94008 z m 14.87539,691.81296 467.65858,-1.59464 31.2503,31.2502 -32.4403,32.44026 -457.68613,10.37709 c 0,0 -32.58305,6.25957 -32.58305,-32.58306 0,-38.84262 23.8006,-39.88985 23.8006,-39.88985 z m -7.14019,200.09189 279.89541,-53.28961 -18.06466,56.02671 -59.23975,35.5343 -189.88148,13.2808 c 0,-0.024 -35.01073,-38.6999 -12.70952,-51.5522 z m 10.8531,-599.276088 c 33.9635,15.042 209.89774,40.699078 167.29461,103.413738 -29.44133,43.36475 -124.35827,-20.61134 -157.08413,-34.79652 -18.58832,-8.04461 -40.38967,-14.01857 -57.38333,-24.53845 25.22867,-4.76013 31.82142,-38.414218 19.8021,-58.240138 8.83004,5.33134 17.9933,9.99626 27.37075,14.16137 z M 545.62873,1091.9705 c 0,0 383.09496,18.3502 384.18978,18.4217 19.46892,0.9282 56.85973,-10.2105 57.19292,-37.724 0.59503,-50.9572 -90.72803,-41.1514 -119.05076,-42.5318 -50.45734,-2.499 -100.89086,-5.0219 -151.34819,-7.4972 -14.28039,-0.714 -188.81041,1.4994 -191.71409,-9.5202 l 20.73034,78.8515 z m 57.02631,182.1224 420.29536,0 34.5585,0 c 0,0 11.4957,14.8278 24.4671,-25.2049 12.9475,-39.9612 4.3079,-51.8378 4.3079,-51.8378 l -509.52395,-0.7378 25.89509,77.7805 z"
     style="fill:#7dff00;stroke:#000000;stroke-width:10.29444599"
     id="path139"
     inkscape:connector-curvature="0" /><path
     d="m 111.60043,-372.98217 506.57264,0 c 0,0 25.18102,5.92636 25.18102,-25.18108 0,-31.10743 -21.46814,-52.57557 -21.46814,-52.57557 l -536.942225,0 c -0.0238,0 -32.7497,42.3175 26.656705,77.75665 z m 494.38669,181.05139 c -1.49944,4.66492 -49.36249,10.63888 -54.28923,11.70991 -40.03269,8.66343 -80.06534,17.32685 -120.09799,25.96648 -36.70058,7.92561 -73.06795,14.63739 -109.50671,21.82518 -24.68122,4.83153 -62.66707,22.682 -80.58893,-4.95053 -9.09186,-14.04237 -10.04388,-38.55702 11.6861,-51.36176 0,0 316.11999,-70.30706 359.81793,-78.39928 l 8.09225,27.46593 c 0.0238,0.0238 -15.11342,47.72026 -15.11342,47.74407 z m -503.57376,496.62396 417.74867,17.85046 c 0,0 20.49234,6.83079 21.82519,-24.27663 1.30905,-31.08363 -15.47041,-53.26581 -15.47041,-53.26581 L 83.729855,226.0797 c 0.0238,0 -28.75115,41.10368 18.683505,78.61348 z m 77.30445,246.59834 c 0,0 -47.41085,11.85272 -56.28848,-26.65673 -8.90144,-38.50938 26.65673,-38.50938 26.65673,-38.50938 l 465.08809,-20.75415 37.03379,37.05757 -37.03379,37.03379 -435.45634,11.8289 z m 195.52217,207.37487 c 0,0 -35.5581,14.804 -35.5581,-35.5581 0,-50.3384 19.25469,-31.1075 19.25469,-31.1075 l 281.37107,-32.6544 20.80174,20.8017 -29.63178,29.608 -256.23762,48.9103 z M 340.8005,19.990032 c -12.30494,-22.9200003 4.7363,-48.9341 41.07989,-47.10144 74.80538,3.73669 131.47469,72.25871 203.23356,89.22856 18.58832,4.40312 -32.94005,38.676018 -38.05718,39.961258 -28.87015,7.18779 -45.3164,-2.189658 -71.33051,-14.399378 -38.50941,-18.13608 -81.08876,-26.82331 -117.38469,-49.76712 -8.30644,-5.28374 -14.09,-11.49571 -17.54107,-17.92188 z M 178.07558,1074.9054 l 371.40886,17.8505 c 0,0 18.25508,6.807 19.4213,-24.2767 1.16621,-31.1074 -13.75676,-53.2658 -13.75676,-53.2658 L 161.46276,996.29189 c 0.0238,0 -25.56191,41.10371 16.61282,78.61351 z m -53.28962,199.1875 492.26848,0 c 0,0 24.467,5.9263 24.467,-25.2049 0,-31.1074 -20.8731,-52.5756 -20.8731,-52.5756 l -521.781255,0 c 0,0.024 -31.79765,42.3175 25.918875,77.7805 z"
     style="fill:#ffbf00;stroke:#000000;stroke-width:10.29444599"
     id="path135"
     inkscape:connector-curvature="0" /><path
     d="m 132.35907,-499.13077 c -29.35498,57.59372 -48.500195,124.97473 -31.63555,189.33927 28.89398,110.29212 157.98859,288.368442 157.98859,288.368442 0,0 -177.743115,-150.110582 -201.448545,-343.657312 l 0,-134.07229 m 1028.552935,-0.045 c 6.8776,15.80908 5.1937,32.56999 -11.4329,49.19662 -33.5827,33.55889 -108.67377,68.85521 -207.37495,116.52788 C 768.30743,-285.77668 304.17133,-66.858478 209.3734,27.939432 114.57548,122.73735 75.090265,166.2211 39.532095,300.48046 c 0,0 5.33136,80.37472 0,154.06147 0,0 27.32315,190.54786 189.286415,277.42016 -0.0238,-0.024 -161.653885,-143.18459 -137.972245,-273.49303 0,0 -9.87727,-73.06794 140.233315,-223.17853 165.86658,-165.866588 643.71188,-379.40585 708.99701,-400.94542 329.80541,-108.57848 156.01321,-152.03844 201.44861,-284.34614 0,0 9.1701,-19.0512 -18.9499,-49.10283 m 5.7255,1834.45316 c -0.416,-32.3048 -0.6359,-62.5452 -0.6276,-97.362 0.024,-59.1684 9.4965,-106.127 -15.161,-153.5616 -5.2124,-9.9963 -11.9003,-20.0402 -20.54,-30.1793 -34.0587,-40.1278 -205.23282,-148.68251 -248.38339,-146.94501 161.65399,102.15221 230.17599,183.28861 235.72149,226.53441 5.4028,41.8415 -31.6072,79.5893 -45.4354,117.6227 -8.9252,24.5384 -4.5381,58.2947 -5.4187,83.8327 m -946.493505,-0.024 c 0.45957,-13.7354 -9.94272,-17.096 14.76231,-83.1904 8.139845,-21.7776 18.159905,-42.6032 30.441015,-62.1434 18.87389,-29.9888 44.17398,-57.2644 69.16464,-82.1836 85.08726,-84.8964 191.76168,-146.13541 303.33906,-189.11941 327.82987,-126.4051 493.7203,-240.9575 493.7203,-240.9575 0,0 118.50338,-75.04341 150.11058,-150.1106 0,0 -23.7054,-118.47954 0,-185.62113 0,0 -37.6526,-60.16799 -176.52931,-136.47281 0,0 109.38771,69.33124 109.38771,136.47281 0,67.14159 -112.57699,175.79144 -148.11132,175.79144 0,0 -614.19911,302.10149 -614.19911,302.12519 -40.12787,19.7545 -66.45135,55.5269 -99.72464,85.2539 -31.34541,28.0133 -63.52385,55.5507 -85.03964,92.275 -27.10893,46.26851 -55.098495,93.03671 -72.568115,144.04151 -15.77984,46.1256 -25.99911,146.8218 -17.86811,193.7638"
     style="fill:#ff0000;stroke:#000000;stroke-width:10.29444599"
     id="path149"
     inkscape:connector-curvature="0" /></svg>